<?xml version="1.0" standalone="no"?>
<!DOCTYPE svg PUBLIC "-//W3C//DTD SVG 20010904//EN"
 "http://www.w3.org/TR/2001/REC-SVG-20010904/DTD/svg10.dtd">
<svg version="1.0" xmlns="http://www.w3.org/2000/svg"
 width="1536.000000pt" height="1024.000000pt" viewBox="0 0 1536.000000 1024.000000"
 preserveAspectRatio="xMidYMid meet">

<g transform="translate(0.000000,1024.000000) scale(0.100000,-0.100000)"
fill="#000000" stroke="none">
<path d="M6625 8034 c-427 -80 -761 -354 -881 -721 -86 -262 -67 -568 50 -808
49 -100 138 -225 208 -293 l44 -42 64 25 c107 42 208 65 346 77 l131 12 25 45
c14 26 35 64 48 86 l23 41 -63 59 c-181 173 -277 375 -288 609 -11 254 65 457
238 640 118 124 290 226 424 252 73 13 18 26 -135 30 -111 3 -177 -1 -234 -12z"/>
<path d="M8872 7649 c-23 -96 -42 -177 -42 -181 0 -4 22 -4 49 -1 27 3 64 1
81 -6 l33 -11 -6 33 c-4 17 -21 101 -40 186 l-34 154 -41 -174z"/>
<path d="M8332 7573 c2 -5 36 -75 76 -157 l72 -149 44 41 c25 23 56 44 70 48
14 3 26 9 26 13 0 4 -39 36 -87 71 -49 35 -111 81 -139 102 -48 36 -70 47 -62
31z"/>
<path d="M9456 7557 c-16 -12 -77 -57 -135 -100 -58 -43 -107 -82 -109 -87 -2
-5 6 -11 18 -15 11 -4 41 -24 66 -46 26 -22 48 -39 49 -37 12 13 153 308 148
307 -5 0 -21 -10 -37 -22z"/>
<path d="M8774 7339 c-164 -56 -274 -217 -274 -401 0 -91 22 -163 71 -237 46
-69 85 -100 177 -144 62 -29 75 -32 168 -32 96 0 104 2 176 38 55 27 92 54
133 99 66 71 92 124 107 223 9 59 8 83 -6 147 -30 133 -105 226 -235 291 -57
28 -76 32 -160 34 -77 3 -108 -1 -157 -18z"/>
<path d="M8240 7036 c-85 -23 -161 -45 -169 -47 -10 -4 309 -99 330 -99 2 0 4
43 4 95 1 52 -2 95 -5 94 -3 0 -75 -20 -160 -43z"/>
<path d="M9425 6985 c0 -80 2 -94 15 -90 97 28 261 74 284 79 15 4 26 9 24 11
-6 6 -299 95 -313 95 -6 0 -10 -38 -10 -95z"/>
<path d="M7565 6834 c-275 -40 -474 -141 -656 -332 -116 -121 -200 -258 -240
-392 -11 -35 -16 -40 -33 -36 -125 34 -348 32 -476 -4 -319 -90 -564 -335
-637 -638 -15 -64 -23 -256 -10 -268 5 -5 166 25 228 42 13 4 17 24 22 102 15
274 195 497 472 589 70 23 96 26 215 27 124 0 141 -2 210 -28 41 -16 83 -35
92 -43 15 -14 18 -11 28 29 62 239 173 417 346 555 194 154 400 222 644 210
253 -12 460 -109 629 -293 91 -100 91 -97 25 -135 -114 -65 -237 -178 -312
-286 -36 -51 -25 -58 21 -13 123 125 302 219 492 261 88 19 295 17 380 -4 243
-60 437 -235 481 -435 19 -84 15 -199 -9 -267 -13 -39 -15 -40 -63 -42 -389
-18 -561 -29 -904 -58 -223 -19 -497 -44 -610 -55 -113 -11 -299 -29 -414 -40
-592 -58 -1468 -176 -1924 -260 -192 -36 -593 -122 -588 -127 2 -2 93 5 202
17 110 12 240 25 289 31 50 5 110 11 135 14 44 5 693 70 800 80 30 3 102 9
160 15 855 80 1926 147 2770 173 l384 12 20 60 c27 83 29 311 3 405 -93 341
-398 590 -774 632 -96 11 -239 3 -309 -17 -18 -6 -26 2 -52 47 -112 197 -365
379 -617 444 -80 21 -128 27 -245 29 -80 2 -158 1 -175 -1z"/>
<path d="M9321 6619 c-30 -33 -52 -61 -50 -63 12 -10 306 -166 314 -166 5 0
-1 10 -12 23 -11 12 -59 77 -107 145 -48 67 -88 121 -89 121 -1 -1 -26 -28
-56 -60z"/>
<path d="M9060 5099 c-463 -16 -1203 -51 -1380 -64 -36 -3 -130 -10 -210 -15
-287 -21 -795 -71 -815 -80 -13 -6 48 -8 175 -4 340 9 1134 23 1138 19 2 -1
-7 -14 -20 -27 -106 -110 -431 -478 -426 -483 4 -5 410 319 545 435 l93 80
131 0 131 0 -58 -64 c-297 -327 -489 -546 -478 -546 9 0 257 200 561 453 l182
152 130 5 c152 6 152 21 -1 -144 -154 -165 -491 -546 -487 -551 6 -5 343 266
684 550 164 138 310 257 322 266 20 13 22 32 4 27 -3 0 -103 -5 -221 -9z"/>
<path d="M6254 3800 c-104 -22 -209 -103 -255 -195 -21 -43 -24 -64 -24 -150
0 -92 2 -104 29 -153 77 -139 244 -211 423 -184 193 30 310 148 321 322 9 155
-79 284 -230 342 -60 22 -200 32 -264 18z m231 -117 c126 -66 173 -211 110
-339 -44 -90 -124 -134 -244 -134 -153 0 -251 97 -251 250 0 109 44 183 135
227 43 21 61 24 130 20 56 -2 92 -10 120 -24z"/>
<path d="M7115 3795 c-27 -8 -53 -14 -57 -15 -17 -1 -82 -68 -94 -97 -20 -46
-17 -103 5 -139 36 -59 81 -83 213 -115 68 -17 141 -40 163 -52 73 -40 71
-111 -5 -150 -29 -15 -53 -17 -135 -14 -98 3 -114 7 -243 64 -10 4 -12 -8 -10
-53 l3 -59 60 -22 c77 -27 203 -38 289 -25 133 21 205 79 214 172 6 63 -2 91
-34 130 -37 44 -91 68 -234 107 -132 35 -173 57 -178 91 -9 58 50 92 158 92
67 0 181 -28 205 -51 5 -5 15 -9 22 -9 11 0 13 14 11 58 l-3 57 -54 18 c-75
25 -231 31 -296 12z"/>
<path d="M3746 3778 c-9 -12 -16 -26 -16 -29 0 -4 -57 -124 -126 -266 -69
-142 -137 -282 -150 -310 l-24 -53 64 0 63 0 38 85 38 85 179 0 179 0 39 -85
39 -85 66 0 c36 0 65 2 65 4 0 2 -75 155 -166 340 l-166 336 -54 0 c-43 0 -56
-4 -68 -22z m127 -243 c32 -69 60 -132 63 -140 5 -13 -13 -15 -126 -15 -102 0
-131 3 -127 13 42 95 123 267 127 267 3 0 31 -56 63 -125z"/>
<path d="M4254 3786 c-3 -8 -4 -29 -2 -46 l3 -33 113 2 112 2 0 -295 0 -296
64 0 65 0 -2 293 -2 292 118 3 117 3 0 44 0 45 -290 0 c-240 0 -292 -2 -296
-14z"/>
<path d="M5060 3460 l0 -340 60 0 60 0 2 232 3 231 70 -104 c90 -135 145 -209
156 -209 5 0 57 73 116 162 l108 162 3 -237 2 -237 60 0 60 0 0 340 0 340 -57
0 -58 0 -115 -174 c-63 -96 -118 -173 -121 -173 -3 1 -57 79 -120 172 l-114
170 -57 3 -58 3 0 -341z"/>
<path d="M7740 3461 l0 -341 66 0 65 0 -3 115 -3 115 112 0 c170 0 272 38 312
118 45 89 33 190 -29 252 -61 61 -107 72 -327 77 l-193 5 0 -341z m373 225
c53 -22 72 -51 72 -111 0 -94 -50 -126 -207 -133 l-107 -5 -3 133 c-2 72 -1
134 2 137 10 10 210 -7 243 -21z"/>
<path d="M8527 3793 c-4 -3 -7 -156 -7 -340 l0 -333 65 0 65 0 0 155 0 155
185 0 185 0 1 -22 c0 -13 0 -83 -1 -155 l-1 -133 66 0 65 0 0 340 0 341 -62
-3 -63 -3 0 -133 0 -132 -187 0 -188 0 0 135 0 135 -58 0 c-32 0 -62 -3 -65
-7z"/>
<path d="M9410 3460 l0 -340 280 0 280 0 0 45 0 45 -215 0 -215 0 0 105 0 105
175 0 175 0 0 45 0 45 -175 0 -175 0 0 100 0 100 216 0 215 0 -3 43 -3 42
-277 3 -278 2 0 -340z"/>
<path d="M10210 3461 l0 -341 65 0 65 0 0 120 0 120 88 0 c101 0 94 4 175
-110 93 -132 92 -132 171 -128 l70 3 -45 55 c-24 30 -63 80 -86 110 -23 30
-51 65 -62 77 l-20 22 35 11 c53 18 110 77 124 129 30 112 -32 216 -149 252
-20 6 -125 14 -233 16 l-198 5 0 -341z m396 219 c63 -31 83 -100 47 -161 -28
-47 -74 -63 -200 -67 l-113 -4 0 132 0 133 113 -7 c80 -5 124 -12 153 -26z"/>
<path d="M11344 3768 c-10 -18 -83 -171 -165 -340 l-147 -308 64 0 63 0 40 85
40 85 175 0 176 0 39 -85 40 -85 66 0 c37 0 65 3 63 8 -17 34 -125 257 -217
445 l-110 227 -55 0 c-52 0 -56 -2 -72 -32z m196 -380 c0 -4 -58 -8 -130 -8
-71 0 -130 1 -130 3 0 2 9 22 21 46 32 66 90 193 100 220 9 22 16 11 74 -114
36 -76 65 -142 65 -147z"/>
</g>
</svg>
